<svg width="32" height="32" viewBox="0 0 32 32" fill="none" xmlns="http://www.w3.org/2000/svg">
<g clip-path="url(#clip0_2_2)">
<g clip-path="url(#clip1_2_2)">
<path d="M16 2.66667C8.66667 2.66667 2.66667 8.66667 2.66667 16C2.66667 23.3333 8.66667 29.3333 16 29.3333C23.3333 29.3333 29.3333 23.3333 29.3333 16C29.3333 8.66667 23.3333 2.66667 16 2.66667Z" fill="#7CB342"/>
<path d="M30 16C30 23.8 23.6667 30 16 30C8.33333 30 2 23.8 2 16C2 8.2 8.2 2 16 2C23.8 2 30 8.2 30 16ZM15.8667 22.4667C15.8667 22.2 15.7333 22.0667 15.4667 21.9333C14.6 21.6667 13.8 21.6667 13.0667 20.9333C12.9333 20.6667 12.9333 20.4 12.8 20.0667C12.5333 19.8 11.8 19.6667 11.4 19.5333H8.6C8.2 19.4 7.86667 18.8 7.6 18.4C7.6 18.2667 7.6 18 7.33333 18C7.06667 17.8667 6.8 18.1333 6.46667 18C6.33333 17.8667 6.33333 17.7333 6.33333 17.6C6.33333 17.2 6.6 16.7333 6.86667 16.4667C7.26667 16.2 7.73333 16.6 8.13333 16.6C8.26667 16.6 8.26667 16.6 8.4 16.7333C8.8 16.8667 8.93333 17.4 8.93333 17.8667V18.1333C8.93333 18.2667 9.06667 18.2667 9.2 18.2667C9.33333 17.5333 9.33333 16.8667 9.46667 16.1333C9.46667 15.2667 10.3333 14.4667 11 14.2C11.2667 14.0667 11.4 14.3333 11.7333 14.2C12.6 13.9333 14.6667 13.0667 14.2667 11.9333C14 10.9333 13.1333 10 12 10.1333C11.7333 10.2667 11.6 10.4 11.3333 10.5333C10.9333 10.8 10.0667 11.6667 9.66667 11.6667C8.93333 11.5333 8.93333 10.5333 9.13333 10.1333C9.26667 9.6 10.5333 7.73333 11.4 8.06667L11.9333 8.6C12.2 8.73333 12.6667 8.73333 13.0667 8.73333C13.2 8.73333 13.3333 8.73333 13.4667 8.6C13.6 8.46667 13.6 8.46667 13.6 8.33333C13.6 7.93333 13.2 7.46667 12.9333 7.2C12.6667 6.93333 12.2 6.66667 11.8 6.46667C10.4 6.06667 8.13333 6.6 7.06667 7.6C6 8.6 5.13333 10.2667 4.53333 11.6667C4.26667 12.5333 4 13.6 3.86667 14.6C3.73333 15.2667 3.6 15.8667 4 16.5333C4.4 17.4 5.26667 18.2 6.13333 18.8C6.66667 19.2 7.8 19.2 8.4 19.9333C8.8 20.4667 8.66667 21.2 8.66667 21.8667C8.66667 22.7333 9.2 23.4 9.53333 24.1333C9.66667 24.5333 9.8 25.1333 9.93333 25.5333C9.93333 25.6667 10.0667 26.5333 10.0667 26.6667C10.9333 27.0667 11.6 27.5333 12.6 27.8C12.7333 27.8 13.2667 26.9333 13.2667 26.8C13.6667 26.4 14 25.8 14.4 25.5333C14.6667 25.4 14.9333 25.2667 15.2667 25C15.5333 24.7333 15.6667 24.1333 15.8 23.7333C15.8667 23.4 16 22.8667 15.8667 22.4667V22.4667ZM16.1333 9.53333C16.2667 9.53333 16.4 9.4 16.6667 9.26667C17.0667 9 17.5333 8.53333 17.9333 8.26667C18.3333 8 18.8 7.53333 19.0667 7.26667C19.4667 7 19.8 6.4 19.9333 6C20.0667 5.73333 20.4667 5.13333 20.3333 4.73333C20.2 4.46667 19.4667 4.33333 19.2 4.2C18.0667 3.93333 17.1333 3.8 16 3.8C15.6 3.8 15 3.93333 14.8667 4.33333C14.7333 5.06667 15.2667 4.86667 15.8667 5.06667C15.8667 5.06667 16 6.2 16 6.33333C16.1333 7 15.7333 7.46667 15.7333 8.13333C15.7333 8.53333 15.7333 9.26667 16 9.53333H16.1333ZM27.8667 19.3333C28 19.0667 28 18.6 28.1333 18.3333C28.2667 17.6667 28.2667 16.9333 28.2667 16.2667C28.2667 14.8667 28.1333 13.4667 27.7333 12.2C27.4667 11.8 27.3333 11.3333 27.2 10.9333C26.9333 10.2 26.5333 9.53333 25.9333 9C25.4 8.26667 24.6667 6.33333 23.4 6.93333C23 7.06667 22.7333 7.6 22.4 7.93333C22.1333 8.33333 21.8667 8.8 21.5333 9.2C21.4 9.33333 21.2667 9.6 21.4 9.73333C21.4 9.86667 21.5333 9.86667 21.6667 9.86667C21.9333 10 22.0667 10 22.3333 10.1333C22.4667 10.1333 22.6 10.2667 22.4667 10.4C22.4667 10.4 22.4667 10.5333 22.3333 10.5333C21.6667 11.2667 20.9333 11.8 20.2667 12.4667C20.1333 12.6 20 12.8667 20 13C20 13.1333 20.1333 13.1333 20.1333 13.2667C20.1333 13.4 20 13.4 19.8667 13.5333C19.6 13.6667 19.3333 13.8 19.1333 13.9333C19 14.2 19.1333 14.6667 19 14.9333C18.8667 15.6667 18.4667 16.2 18.1333 16.8667C17.8667 17.2667 17.7333 17.7333 17.4667 18.1333C17.4667 18.6667 17.3333 19.1333 17.6 19.5333C18.2667 20.5333 19.5333 19.9333 20.5333 20.4C20.8 20.5333 21.0667 20.5333 21.2667 20.8C21.6667 21.2 21.6667 21.9333 21.8 22.3333C21.9333 22.8667 22.0667 23.4667 22.3333 24C22.4667 24.6667 22.7333 25.4 22.8667 25.9333C24.1333 24.9333 25.2667 23.8667 26.0667 22.4667C27.0667 21.6 27.4667 20.4667 27.8667 19.3333V19.3333Z" fill="#0277BD"/>
<path d="M7.38081 29.2593L1.49594 7.14909L20.0191 2.21897C22.3074 1.60991 24.234 1.71526 25.7988 2.53502C27.3843 3.3493 28.4897 4.93153 29.1153 7.28171C29.7408 9.63189 29.5681 11.5543 28.5972 13.049C27.6469 14.5382 26.0276 15.5873 23.7393 16.1964L10.1639 19.8096L12.3286 27.9424L7.38081 29.2593ZM20.5015 6.3954L7.51366 9.85224L9.08571 15.7586L22.0818 12.3327C22.9889 12.0913 23.6191 11.6807 23.9726 11.1009C24.3466 10.5157 24.391 9.68707 24.1057 8.61506C23.8149 7.52243 23.3644 6.8255 22.7544 6.52426C22.1596 6.19692 21.4086 6.15397 20.5015 6.3954Z" fill="white"/>
<path d="M7.38081 29.2593L6.41445 29.5165L6.67166 30.4829L7.63801 30.2257L7.38081 29.2593ZM1.49594 7.14909L1.23874 6.18273L0.272381 6.43994L0.529586 7.4063L1.49594 7.14909ZM25.7988 2.53502L25.3347 3.42086L25.3419 3.42456L25.7988 2.53502ZM28.5972 13.049L27.7586 12.5042L27.7542 12.5111L28.5972 13.049ZM10.1639 19.8096L9.90671 18.8432L8.94035 19.1004L9.19756 20.0668L10.1639 19.8096ZM12.3286 27.9424L12.5858 28.9088L13.5521 28.6516L13.2949 27.6852L12.3286 27.9424ZM7.51366 9.85224L7.25646 8.88588L6.2901 9.14309L6.54731 10.1094L7.51366 9.85224ZM9.08571 15.7586L8.11935 16.0158L8.37594 16.9799L9.34061 16.7256L9.08571 15.7586ZM22.0818 12.3327L22.3367 13.2997L22.339 13.299L22.0818 12.3327ZM23.9726 11.1009L23.13 10.5624L23.1243 10.5713L23.1187 10.5804L23.9726 11.1009ZM22.7544 6.52426L22.2723 7.40038L22.2918 7.41107L22.3117 7.42089L22.7544 6.52426ZM8.34717 29.0021L2.4623 6.89188L0.529586 7.4063L6.41445 29.5165L8.34717 29.0021ZM1.75315 8.11545L20.2763 3.18533L19.7619 1.25262L1.23874 6.18273L1.75315 8.11545ZM20.2763 3.18533C22.4065 2.61836 24.0583 2.75211 25.3348 3.42083L26.2629 1.64921C24.4097 0.678406 22.2083 0.601463 19.7619 1.25262L20.2763 3.18533ZM25.3419 3.42456C26.5939 4.06756 27.5685 5.35832 28.1489 7.53891L30.0816 7.0245C29.411 4.50473 28.1746 2.63103 26.2557 1.64549L25.3419 3.42456ZM28.1489 7.53891C28.7293 9.7195 28.5253 11.324 27.7586 12.5043L29.4358 13.5937C30.6109 11.7847 30.7523 9.54427 30.0816 7.0245L28.1489 7.53891ZM27.7542 12.5111C26.979 13.7259 25.6123 14.663 23.4821 15.23L23.9965 17.1627C26.443 16.5116 28.3148 15.3505 29.4402 13.5869L27.7542 12.5111ZM23.4821 15.23L9.90671 18.8432L10.4211 20.7759L23.9965 17.1627L23.4821 15.23ZM9.19756 20.0668L11.3622 28.1996L13.2949 27.6852L11.1303 19.5524L9.19756 20.0668ZM12.0713 26.9761L7.1236 28.293L7.63801 30.2257L12.5858 28.9088L12.0713 26.9761ZM20.2443 5.42904L7.25646 8.88588L7.77087 10.8186L20.7587 7.36175L20.2443 5.42904ZM6.54731 10.1094L8.11935 16.0158L10.0521 15.5014L8.48002 9.59504L6.54731 10.1094ZM9.34061 16.7256L22.3367 13.2997L21.8269 11.3657L8.8308 14.7916L9.34061 16.7256ZM22.339 13.299C23.3985 13.017 24.2947 12.4936 24.8264 11.6215L23.1187 10.5804C22.9436 10.8677 22.5792 11.1655 21.8246 11.3663L22.339 13.299ZM24.8152 11.6395C25.4101 10.7087 25.3874 9.54285 25.072 8.35786L23.1393 8.87227C23.3946 9.8313 23.2832 10.3227 23.13 10.5624L24.8152 11.6395ZM25.072 8.35786C24.7545 7.16488 24.1947 6.12024 23.1972 5.62763L22.3117 7.42089C22.5341 7.53076 22.8752 7.87999 23.1393 8.87227L25.072 8.35786ZM23.2365 5.64815C22.3416 5.1557 21.3038 5.14703 20.2443 5.42904L20.7587 7.36175C21.5133 7.1609 21.9775 7.23814 22.2723 7.40038L23.2365 5.64815Z" fill="black"/>
</g>
</g>
<defs>
<clipPath id="clip0_2_2">
<rect width="32" height="32" fill="white"/>
</clipPath>
<clipPath id="clip1_2_2">
<rect width="32" height="32" fill="white"/>
</clipPath>
</defs>
</svg>
